<svg version="1.2" xmlns="http://www.w3.org/2000/svg" viewBox="0 0 460 93" width="460" height="93">
	<title>Online</title>
	<style>
		tspan { white-space:pre } 
		.t0 { font-size: 98px;line-height: 38px;fill: #f4f4f0;font-family: "Brittany Signature Regular" } 
		.t1 { font-size: 33px;line-height: 38px;fill: #e1b796;font-weight: 400;font-family: "Bellefair-Regular", "Bellefair" } 
		.s2 { fill: #f4f4f0 } 
	</style>
	<text id="Online" style="transform: matrix(1,0,0,1,-5.524,83.937)" >
		<tspan x="0" y="0" class="t0">Online
</tspan>
	</text>
	<text id="AU-PAIRS" style="transform: matrix(1,0,0,1,237.741,91.559)" >
		<tspan x="0" y="0" class="t1" dx="0 1 1 1 1 1 1 1 1" >AU-PAIRS
</tspan>
	</text>
	<path id="shape" class="s2" d="m386.7 40.5c-22.2 0.3-42.1-3.2-62-5.2-22.9-2.3-45.5-0.4-67.3 7.5-5.4 2-10.3 4.9-15 8.2-1.2 0.8-2.8 3.2-4.2 1.1-1.3-1.8 0.6-3.3 2.2-4.5 6-4.6 12.5-8.2 19.7-10.3 19.2-5.8 38.8-8.2 59-6.9 19.1 1.2 38 3.9 57 5.6 22.2 1.9 44 0.4 64.3-10.1 4.8-2.4 9.4-5.3 12.6-9.8 2.1-3 3.3-6.2 0.1-9.4-1.2-1.3-2-3-0.7-4.7 0.9-1.3 2.3-2.3 4-1.8 2 0.5 2.6 2.2 2.9 4 0.8 6.1-0.3 11.6-4.9 16.1-5.9 5.9-13 10-20.9 12.7-15.8 5.5-32.1 8.4-46.8 7.5z"/>
</svg>